<svg id="Group_1285" data-name="Group 1285" xmlns="http://www.w3.org/2000/svg" xmlns:xlink="http://www.w3.org/1999/xlink" width="88.213" height="29" viewBox="0 0 88.213 29">
  <defs>
    <clipPath id="clip-path">
      <rect id="Rectangle_1234" data-name="Rectangle 1234" width="88.213" height="29" fill="none"/>
    </clipPath>
  </defs>
  <g id="Group_1284" data-name="Group 1284" clip-path="url(#clip-path)">
    <path id="Path_1358" data-name="Path 1358" d="M211.221,72.668a2.61,2.61,0,0,0-.415-.441,2.583,2.583,0,0,0-.675-.309,3.131,3.131,0,0,0,.91-.332,2.453,2.453,0,0,0,.727-3.383,1.955,1.955,0,0,0-1.024-.764,6.275,6.275,0,0,0-1.836-.206h-4.318v8.385h2.6v-3.4h.229a1.088,1.088,0,0,1,.635.194,1.95,1.95,0,0,1,.469.646l1.385,2.562h2.928l-1.254-2.429a3.318,3.318,0,0,0-.363-.521m-1.829-2.415a.686.686,0,0,1-.42.263,3.916,3.916,0,0,1-.686.114h-1.092v-1.7h1.138a1.556,1.556,0,0,1,.967.217.849.849,0,0,1,.094,1.11" transform="translate(-173.062 -56.873)" fill="#fff"/>
    <path id="Path_1359" data-name="Path 1359" d="M264.193,81.732a4.486,4.486,0,0,0-2.059-.395,3.476,3.476,0,0,0-2.519.881,3.06,3.06,0,0,0-.912,2.305,3.262,3.262,0,0,0,.455,1.741,2.788,2.788,0,0,0,1.147,1.081,4.37,4.37,0,0,0,1.9.34,4.611,4.611,0,0,0,2.134-.4,3.285,3.285,0,0,0,1.27-1.313l-2.294-.211a1.538,1.538,0,0,1-.406.383,1.324,1.324,0,0,1-.652.171,1.1,1.1,0,0,1-.881-.395,1.51,1.51,0,0,1-.3-.835h4.667v-.263a4.179,4.179,0,0,0-.395-1.951,2.665,2.665,0,0,0-1.149-1.144m-3.117,2.242a1.615,1.615,0,0,1,.269-.818,1.14,1.14,0,0,1,1.662-.149,1.558,1.558,0,0,1,.363.967Z" transform="translate(-218.834 -68.802)" fill="#fff"/>
    <path id="Path_1360" data-name="Path 1360" d="M314.892,81.732a4.486,4.486,0,0,0-2.059-.395,3.476,3.476,0,0,0-2.519.881,3.06,3.06,0,0,0-.912,2.305,3.261,3.261,0,0,0,.455,1.741A2.788,2.788,0,0,0,311,87.345a4.37,4.37,0,0,0,1.9.34,4.612,4.612,0,0,0,2.134-.4,3.282,3.282,0,0,0,1.269-1.313l-2.293-.211a1.538,1.538,0,0,1-.406.383,1.324,1.324,0,0,1-.652.171,1.1,1.1,0,0,1-.881-.395,1.51,1.51,0,0,1-.3-.835h4.667v-.263a4.183,4.183,0,0,0-.395-1.951,2.665,2.665,0,0,0-1.15-1.144m-3.117,2.242a1.615,1.615,0,0,1,.269-.818,1.14,1.14,0,0,1,1.662-.149,1.558,1.558,0,0,1,.363.967Z" transform="translate(-261.72 -68.802)" fill="#fff"/>
    <rect id="Rectangle_1233" data-name="Rectangle 1233" width="2.333" height="8.385" transform="translate(55.842 10.361)" fill="#fff"/>
    <path id="Path_1361" data-name="Path 1361" d="M394.689,68.429a2.991,2.991,0,0,0-1.158-.887,4.61,4.61,0,0,0-1.839-.309h-3.849v8.385h3.849a6.024,6.024,0,0,0,1.544-.229,2.774,2.774,0,0,0,1.167-.666,3.456,3.456,0,0,0,.849-1.241,5.643,5.643,0,0,0,.306-2.085,6.227,6.227,0,0,0-.206-1.624,3.667,3.667,0,0,0-.663-1.344M392.762,72.9a1.218,1.218,0,0,1-.538.629,2.669,2.669,0,0,1-1.155.18h-.635V69.133h.646a1.84,1.84,0,0,1,1.442.492,2.829,2.829,0,0,1,.434,1.825,3.95,3.95,0,0,1-.194,1.455" transform="translate(-328.073 -56.873)" fill="#fff"/>
    <path id="Path_1362" data-name="Path 1362" d="M450.588,86.255V83.572a2.629,2.629,0,0,0-.172-.9,1.717,1.717,0,0,0-.469-.729,2.162,2.162,0,0,0-1.058-.489,9.657,9.657,0,0,0-1.682-.117,7.11,7.11,0,0,0-1.212.1,2.867,2.867,0,0,0-.881.274,2,2,0,0,0-.683.581,2.5,2.5,0,0,0-.363.918l2.225.235a1,1,0,0,1,.361-.538,1.612,1.612,0,0,1,.858-.183.888.888,0,0,1,.623.172.818.818,0,0,1,.177.6,7.845,7.845,0,0,1-.824.277q-.389.106-1.7.369a2.748,2.748,0,0,0-1.5.663,1.625,1.625,0,0,0-.406,1.138,1.6,1.6,0,0,0,.564,1.241,2.4,2.4,0,0,0,1.65.5,3.78,3.78,0,0,0,1.436-.252,3.015,3.015,0,0,0,.91-.629,2.613,2.613,0,0,0,.08.386,2.235,2.235,0,0,0,.172.357h2.185a2.982,2.982,0,0,1-.237-.621,3.237,3.237,0,0,1-.054-.672m-2.277-1.218a1.545,1.545,0,0,1-.14.706,1.141,1.141,0,0,1-.475.46,1.447,1.447,0,0,1-.724.189.811.811,0,0,1-.563-.174.6.6,0,0,1,0-.878,2.315,2.315,0,0,1,.9-.372q.521-.132,1-.3Z" transform="translate(-375.479 -68.801)" fill="#fff"/>
    <path id="Path_1363" data-name="Path 1363" d="M496.318,74.108a.427.427,0,0,1-.4-.194,1.165,1.165,0,0,1-.074-.514V71.248h1.281v-1.7h-1.281V67.233l-2.333,1.2v1.115h-.858v1.7h.858v2.137a3.975,3.975,0,0,0,.2,1.471,1.357,1.357,0,0,0,.609.677,2.807,2.807,0,0,0,1.281.223,7.564,7.564,0,0,0,1.613-.189l-.172-1.607a2.55,2.55,0,0,1-.721.148" transform="translate(-416.73 -56.872)" fill="#fff"/>
    <path id="Path_1364" data-name="Path 1364" d="M533.778,86.927a3.239,3.239,0,0,1-.054-.672V83.572a2.63,2.63,0,0,0-.172-.9,1.717,1.717,0,0,0-.469-.729,2.162,2.162,0,0,0-1.058-.489,9.655,9.655,0,0,0-1.682-.117,7.108,7.108,0,0,0-1.212.1,2.867,2.867,0,0,0-.881.274,2,2,0,0,0-.683.581,2.5,2.5,0,0,0-.363.918l2.225.235a1,1,0,0,1,.361-.538,1.613,1.613,0,0,1,.858-.183.888.888,0,0,1,.623.172.819.819,0,0,1,.177.6,7.847,7.847,0,0,1-.824.277q-.389.106-1.7.369a2.749,2.749,0,0,0-1.5.663,1.626,1.626,0,0,0-.406,1.138,1.6,1.6,0,0,0,.564,1.241,2.4,2.4,0,0,0,1.65.5,3.78,3.78,0,0,0,1.436-.252,3.015,3.015,0,0,0,.91-.629,2.618,2.618,0,0,0,.08.386,2.238,2.238,0,0,0,.172.357h2.185a2.984,2.984,0,0,1-.237-.621m-2.331-1.89a1.545,1.545,0,0,1-.14.706,1.142,1.142,0,0,1-.475.46,1.447,1.447,0,0,1-.724.189.812.812,0,0,1-.563-.174.6.6,0,0,1,0-.878,2.315,2.315,0,0,1,.9-.372q.521-.132,1-.3Z" transform="translate(-445.802 -68.801)" fill="#fff"/>
    <path id="Path_1365" data-name="Path 1365" d="M77.185,25.281a.958.958,0,0,0-.37-.257,1.646,1.646,0,0,0-1.65.275c-.073.047-.139.107-.174.126-.013.007-.027-.007-.036-.038-.043-.157-.1-.363-.106-.4a13.389,13.389,0,0,0-7.7-9.305,5.009,5.009,0,0,0-2.764-.218,10.081,10.081,0,0,0-1.259.387,10.205,10.205,0,0,0-6.208,5.557c-.05.106-.164.341-.114.365a.113.113,0,0,0,.123-.028c.1-.075.192-.149.282-.229a8.755,8.755,0,0,1,3.848-1.99,12.3,12.3,0,0,1,4.08-.351,9.549,9.549,0,0,1,4.724,1.871,13.4,13.4,0,0,1,4.5,4.856h0a1.069,1.069,0,0,1,.17.506,1.965,1.965,0,0,0,.936,2.041c.044.028.076-.017.049-.065a2.145,2.145,0,0,1-.1-2.172,1.553,1.553,0,0,1,1.443-.879c.189-.008.345.022.355.009s-.016-.039-.032-.058" transform="translate(-48.042 -12.99)" fill="#7ecbfd"/>
    <path id="Path_1366" data-name="Path 1366" d="M26.1.034a.958.958,0,0,0-.257.37,1.646,1.646,0,0,0,.275,1.65c.047.073.107.139.126.174.007.013-.007.028-.038.036-.157.043-.363.1-.4.106a13.389,13.389,0,0,0-9.305,7.7,5.009,5.009,0,0,0-.218,2.764,10.065,10.065,0,0,0,.387,1.259A10.205,10.205,0,0,0,22.227,20.3c.106.05.341.164.365.114a.113.113,0,0,0-.028-.123c-.075-.1-.149-.192-.229-.282a8.751,8.751,0,0,1-1.99-3.848,12.3,12.3,0,0,1-.351-4.08,9.549,9.549,0,0,1,1.871-4.724,13.4,13.4,0,0,1,4.856-4.5v0a1.07,1.07,0,0,1,.506-.17,1.965,1.965,0,0,0,2.041-.936C29.3,1.7,29.25,1.671,29.2,1.7a2.145,2.145,0,0,1-2.172.1A1.553,1.553,0,0,1,26.151.357c-.008-.189.022-.345.009-.355s-.039.016-.058.032" transform="translate(-13.684 0)" fill="#7ecbfd"/>
    <path id="Path_1367" data-name="Path 1367" d="M.033,91a.956.956,0,0,0,.37.257,1.646,1.646,0,0,0,1.65-.275c.073-.047.139-.107.174-.126.013-.007.027.007.036.038.043.157.1.363.106.4a13.388,13.388,0,0,0,7.7,9.305,5.008,5.008,0,0,0,2.763.218,10.075,10.075,0,0,0,1.259-.387A10.2,10.2,0,0,0,20.3,94.878c.05-.106.164-.341.114-.365a.113.113,0,0,0-.123.028c-.1.075-.192.149-.282.229a8.752,8.752,0,0,1-3.848,1.99,12.3,12.3,0,0,1-4.08.351A9.548,9.548,0,0,1,7.354,95.24a13.4,13.4,0,0,1-4.5-4.856h0a1.074,1.074,0,0,1-.17-.506,1.965,1.965,0,0,0-.936-2.041c-.044-.028-.076.017-.049.065a2.145,2.145,0,0,1,.1,2.172,1.553,1.553,0,0,1-1.443.879c-.189.008-.344-.022-.355-.009s.016.039.032.058" transform="translate(0 -74.293)" fill="#7ecbfd"/>
    <path id="Path_1368" data-name="Path 1368" d="M91.326,76.041a.958.958,0,0,0,.257-.37,1.646,1.646,0,0,0-.275-1.65c-.047-.073-.107-.139-.126-.174-.007-.013.007-.027.038-.036.157-.043.363-.1.4-.106a13.388,13.388,0,0,0,9.305-7.7,5.008,5.008,0,0,0,.218-2.763,10.072,10.072,0,0,0-.387-1.259A10.206,10.206,0,0,0,95.2,55.777c-.106-.05-.341-.164-.365-.114a.113.113,0,0,0,.028.123c.075.1.149.192.229.282a8.752,8.752,0,0,1,1.99,3.848A12.3,12.3,0,0,1,97.434,64a9.546,9.546,0,0,1-1.871,4.724,13.4,13.4,0,0,1-4.856,4.5v0a1.074,1.074,0,0,1-.506.17,1.966,1.966,0,0,0-2.041.936c-.028.044.017.076.065.049a2.145,2.145,0,0,1,2.172-.1,1.553,1.553,0,0,1,.879,1.443c.008.189-.022.345-.009.355s.039-.016.058-.032" transform="translate(-74.567 -47.074)" fill="#7ecbfd"/>
  </g>
</svg>
